<?xml version="1.0" encoding="UTF-8"?>
<svg xmlns="http://www.w3.org/2000/svg" viewBox="0 0 857.143 1000" preserveAspectRatio="xMinYMin meet" width="100%" height="100%"><path d="M678.528 535.744v-71.424q0 -14.508 -10.602 -25.11t-25.11 -10.602h-428.544q-14.508 0 -25.11 10.602t-10.602 25.11v71.424q0 14.508 10.602 25.11t25.11 10.602h428.544q14.508 0 25.11 -10.602t10.602 -25.11zm178.56 -35.712q0 116.622 -57.474 215.109t-155.961 155.961 -215.109 57.474 -215.109 -57.474 -155.961 -155.961 -57.474 -215.109 57.474 -215.109 155.961 -155.961 215.109 -57.474 215.109 57.474 155.961 155.961 57.474 215.109z"></path></svg> 